<!-- Generator: Adobe Illustrator 22.0.1, SVG Export Plug-In  -->
<svg version="1.1"
	 xmlns="http://www.w3.org/2000/svg" xmlns:xlink="http://www.w3.org/1999/xlink" xmlns:a="http://ns.adobe.com/AdobeSVGViewerExtensions/3.0/"
	 x="0px" y="0px" width="1570.974px" height="909.954px" viewBox="0 0 1570.974 909.954"
	 style="enable-background:new 0 0 1570.974 909.954;" xml:space="preserve">
<defs>
</defs>
<g>
	<path d="M745.947,569.958c20.225,55.611,40.529,111.439,60.832,167.267c0.534-0.06,1.068-0.12,1.601-0.18
		c2.235-5.646,4.541-11.265,6.685-16.946c2.11-5.592,4.22-11.196,5.981-16.903c0.583-1.89,0.644-4.315-0.011-6.156
		c-8.751-24.584-17.591-49.137-26.577-73.636c-5.783-15.766-11.872-31.419-17.738-47.154c-0.667-1.79-0.778-3.786-1.272-6.336
		c2.291-0.289,4.015-0.689,5.74-0.695c14.996-0.053,29.995,0.102,44.988-0.123c4.517-0.068,7.287,1.513,8.749,5.702
		c3.447,9.875,6.869,19.76,10.441,29.591c1.637,4.505,3.601,8.891,5.911,14.538c2.148-5.049,4.17-9.243,5.739-13.601
		c3.661-10.166,7.129-20.401,10.621-30.627c1.371-4.015,3.953-5.63,8.292-5.58c15.161,0.177,30.325,0.034,45.488,0.062
		c1.588,0.003,3.176,0.328,5.973,0.638c-1.392,4.24-2.469,7.771-3.706,11.245c-4.177,11.735-8.359,23.469-12.635,35.168
		c-9.867,26.994-19.815,53.959-29.629,80.972c-0.582,1.603-0.837,3.726-0.291,5.272c3.985,11.296,8.211,22.507,12.385,33.736
		c0.097,0.26,0.473,0.417,1.543,1.307c6.198-13.576,10.318-27.633,15.545-41.234c5.345-13.908,10.352-27.947,15.445-41.952
		c5.053-13.896,10.015-27.824,15.041-41.73c5.021-13.892,10.073-27.773,15.335-42.275c1.648-0.352,3.521-1.091,5.397-1.1
		c15.662-0.079,31.325-0.039,46.987,0.017c1.433,0.005,2.864,0.364,4.093,0.531c1.355,4.774-93.783,263.975-97.332,268.902
		c-13.886,0-27.969,0-42.607,0c-6.981-18.852-13.913-37.571-20.845-56.29c-0.514,0.078-1.028,0.156-1.542,0.233
		c-7,18.695-14,37.391-21.007,56.105c-14.697,0-28.642,0-43.722,0c-32.74-88.902-65.096-178.225-97.805-268.036
		c1.944-0.653,3.115-1.386,4.287-1.388c16.992-0.031,33.985,0.035,50.977,0.094C743.787,569.398,744.272,569.594,745.947,569.958z"
		/>
	<path d="M0,769.821c0.681-1.358,1.126-2.917,2.079-4.045c16.072-19.034,32.145-38.069,48.387-56.958
		c3.033-3.527,4.184-7.173,4.177-11.779c-0.11-66.161-0.081-132.323-0.062-198.484c0.001-2.629,0.238-5.258,0.387-8.346
		c18.668,0,36.881,0,55.87,0c0.266,2.252,0.753,4.466,0.755,6.681c0.039,42.83,0.015,85.66,0.033,128.489
		c0.001,2.589,0.245,5.178,0.375,7.767c0.453,0.191,0.905,0.382,1.358,0.573c40.621-47.778,81.241-95.557,121.879-143.355
		c24.162,0,48.075,0,73.106,0c-0.93,2.167-1.254,3.903-2.244,5.079c-13.895,16.511-27.894,32.935-41.841,49.402
		c-14.792,17.465-29.535,34.972-44.341,52.425c-10.525,12.407-21.146,24.732-31.664,37.145c-3.96,4.674-7.752,9.49-12.276,15.046
		c2.322,3.279,4.573,6.846,7.206,10.106c8.761,10.849,17.667,21.581,26.503,32.369c10.418,12.718,20.842,25.431,31.224,38.178
		c10.38,12.743,20.685,25.547,31.071,38.285c10.374,12.724,20.813,25.395,31.213,38.097c8.172,9.981,16.328,19.974,25.204,30.833
		c-2.522,0.744-4.097,1.606-5.676,1.613c-21.164,0.094-42.329,0.018-63.494,0.111c-4.592,0.02-6.733-3.297-9.111-6.156
		c-8.595-10.333-17.016-20.811-25.519-31.221c-10.395-12.727-20.793-25.451-31.213-38.158
		c-10.63-12.961-21.303-25.887-31.928-38.852c-6.93-8.456-13.802-16.96-20.719-25.427c-0.904-1.107-1.922-2.122-3.462-3.81
		c-3.532,3.939-6.762,7.382-9.81,10.98c-4.086,4.824-7.691,10.108-12.148,14.546c-3.263,3.249-3.736,6.786-3.732,10.863
		c0.028,33.164,0.026,66.328,0.005,99.492c-0.001,2.118-0.238,4.235-0.351,6.097c-3.914,1.866-49.024,2.421-56.415,0.662
		c0-21.598,0-43.463,0-66.116c-9.772-1.238-18.707-0.567-27.587-0.684c-8.783-0.116-17.569-0.025-26.354-0.025
		C0.59,770.77,0.295,770.296,0,769.821z"/>
	<path d="M430.501,838.635c-19.199,0-37.754,0-56.84,0c0-116.242,0-232.079,0-348.429c18.835,0,37.384,0,56.701,0
		c0.212,2.754,0.603,5.496,0.607,8.238c0.04,28.499,0.007,56.998,0.031,85.497c0.002,2.427,0.266,4.853,0.453,8.061
		c1.928-0.57,3.256-0.655,4.219-1.292c16.778-11.104,35.061-17.638,55.115-20.185c17.34-2.202,34.314-0.92,51.066,3.001
		c8.495,1.988,16.895,5.275,24.652,9.298c9.369,4.86,18.708,10.286,26.775,17.01c8.464,7.056,16.019,15.459,22.824,24.169
		c5.658,7.242,10.183,15.522,14.273,23.804c8.688,17.59,12.639,36.414,12.656,56.031c0.038,43.165,0.039,86.33,0.021,129.495
		c-0.001,1.595-0.356,3.19-0.521,4.568c-6.551,2.068-53.928,1.475-57.846-0.939c0-8.566-0.009-17.531,0.002-26.495
		c0.038-32.664,0.038-65.328,0.152-97.991c0.036-10.205-0.476-20.353-3.354-30.177c-3.915-13.365-11.115-24.849-21.373-34.25
		c-18.786-17.215-41.198-23.997-65.964-19.279c-22.843,4.351-40.639,17.018-52.521,37.715c-7.567,13.18-10.519,27.251-10.573,42.073
		c-0.148,40.998-0.038,81.997-0.064,122.995C430.992,833.808,430.687,836.061,430.501,838.635z"/>
	<path d="M1513.731,838.537c-0.213-2.377-0.536-4.314-0.538-6.252c-0.032-39.988-0.175-79.977,0.062-119.964
		c0.07-11.816-1.159-23.347-5.249-34.364c-6.017-16.208-16.31-29.045-31.072-38.438c-15.248-9.703-31.696-13.312-49.493-11.507
		c-11.103,1.126-21.109,5.164-30.785,10.718c-10.397,5.968-18.448,14.241-24.979,23.89c-7.391,10.919-11.546,23.344-11.875,36.566
		c-0.51,20.481-0.391,40.979-0.435,61.469c-0.051,23.493,0.024,46.986,0.001,70.479c-0.002,2.268-0.313,4.536-0.52,7.346
		c-19.195,0-37.878,0-57.15,0c0-89.501,0-178.825,0-268.738c18.679,0,37.211,0,56.212,0c3.33,6.846,0.008,14.629,2.314,22.456
		c1.722-0.926,2.98-1.515,4.15-2.244c16.595-10.333,34.409-16.895,53.958-19.342c17.47-2.188,34.661-1.274,51.54,2.938
		c9.076,2.265,17.721,6.424,26.384,10.139c13.002,5.576,24.039,14.172,34.021,24.002c11.183,11.013,20.983,23.213,26.954,37.923
		c3.985,9.818,7.871,19.755,10.669,29.95c1.958,7.134,2.735,14.787,2.785,22.217c0.303,45.318,0.251,90.638,0.291,135.957
		c0.001,1.447-0.285,2.895-0.486,4.8C1551.586,838.537,1533.046,838.537,1513.731,838.537z"/>
	<path d="M476.63,286.48c1.512-6.786,2.762-13.644,4.593-20.343c3.555-13,6.92-26.092,11.389-38.785
		c2.442-6.938,6.265-13.68,10.723-19.557c9.163-12.077,22.672-12.849,36.298-11.615c9.152,0.83,18.184,2.819,25.431,9.094
		c2.987,2.587,6.128,5.388,8.048,8.749c9.24,16.177,9.903,32.658-0.219,48.709c-10.692,16.955-39.014,24.372-54.938,14.042
		c-1.182-0.767-2.7-1.014-4.734-1.744c-2.279,6.274-4.883,12.02-6.458,18.035c-5.712,21.809-8.979,44.002-9.812,66.563
		c-0.225,6.108-1.289,12.184-2.025,18.781c-16.031,0-31.547,0-47.509,0c-0.262-1.359-0.767-2.615-0.702-3.841
		c1.027-19.275-1.75-38.284-4.966-57.124c-2.427-14.217-7.242-28.009-10.25-42.148c-3.763-17.693-9.145-35.18-7.986-53.648
		c1.069-17.03,4.803-33.384,14.393-47.615c9.513-14.117,22.114-24.948,37.96-31.983c24.978-11.09,51.142-13.088,77.804-10.503
		c10.884,1.055,21.801,3.203,32.322,6.194c11.361,3.23,21.679,8.939,30.791,16.833c18.431,15.968,24.302,37.111,25.055,60.193
		c0.581,17.813,0.227,35.657,0.232,53.488c0.011,34.329-0.011,68.657-0.047,102.986c-0.002,2.112-0.25,4.224-0.442,7.267
		c-13.402,0.867-26.419,0.418-40.109,0.316c-0.213-2.684-0.543-4.916-0.544-7.148c-0.021-51.16-0.061-102.32,0.054-153.48
		c0.021-9.441-1.135-18.531-4.594-27.38c-5.527-14.142-15.722-22.882-29.835-28.06c-14.184-5.205-28.828-6.178-43.357-4.341
		c-22.5,2.845-40.987,13.278-50.702,34.762c-5.766,12.75-6.79,26.827-5.347,40.717c1.235,11.894,3.576,23.674,5.469,35.498
		c0.916,5.717,1.927,11.419,2.894,17.128C475.884,286.509,476.257,286.495,476.63,286.48z M517.944,237.635
		c-0.701,11.815,7.789,18.685,17.935,18.957c9.702,0.26,18.041-8.362,18.365-18.044c0.351-10.503-9.673-18.647-18.26-18.583
		C525.342,220.044,517.159,226.255,517.944,237.635z"/>
	<path d="M1115.77,299.724c28.545,12.541,32.994,35.264,25.697,56.051c-6.084,17.332-26.294,29.827-46.596,26.032
		c-9.106-1.702-17.729-4.667-24.297-11.784c-6.231-6.751-10.547-14.375-11.99-23.616c-1.434-9.184,0.235-18.054,2.646-27.919
		c-6.982,1.039-12.575,3.445-17.479,6.969c-16.376,11.769-28.081,27.181-34.926,46.222c-0.671,1.868-1.648,3.63-2.541,5.412
		c-0.213,0.426-0.657,0.736-1.355,1.487c-12.736,0-25.806,0-39.669,0c-0.238-2.428-0.642-4.64-0.643-6.852
		c-0.037-49.321-0.026-98.641-0.044-147.962c-0.001-2.137-0.192-4.273-0.323-7.005c-2.161-0.167-4.081-0.592-5.944-0.414
		c-13.485,1.295-25.605-2.176-35.428-11.449c-9.737-9.192-13.937-20.963-12.415-34.358c1.479-13.021,7.631-23.867,18.074-31.552
		c4.342-3.195,10.273-4.659,15.714-5.843c12.405-2.699,24.647-1.122,36.147,4.085c7.052,3.194,12.373,8.676,16.854,15.169
		c7.347,10.647,8.213,22.712,8.27,34.863c0.204,43.321,0.086,86.643,0.14,129.965c0.003,2.663,0.442,5.325,0.677,7.988
		c0.412,0.014,0.823,0.028,1.235,0.042c2.812-3.159,5.306-6.696,8.509-9.391c5.182-4.361,10.497-8.753,16.35-12.092
		c13.11-7.479,27.549-11.513,42.162-15.025c4.431-1.065,8.628-3.212,12.834-5.083c5.371-2.389,6.461-7.127,6.456-12.427
		c-0.02-23.327,0.002-46.655,0.003-69.982c0.001-19.828-0.012-39.657,0.005-59.485c0.002-1.8,0.177-3.6,0.299-5.916
		c13.687,0,27.015,0,40.796,0c0.12,2.297,0.31,4.249,0.311,6.202c0.018,44.655-0.047,89.31,0.067,133.965
		c0.024,9.553-2.577,16.36-14.022,20.267C1119.625,296.877,1118.164,298.22,1115.77,299.724z M1101.609,321.53
		c-12.857-0.015-18.211,5.319-18.947,18.476c-0.698,12.472,5.877,18.707,18.231,18.96c10.843,0.222,19.398-8.125,19.381-18.192
		C1120.253,328.894,1114.127,320.975,1101.609,321.53z M952.238,193.088c10.419,0.139,18.635-7.631,18.898-17.872
		c0.265-10.34-7.999-18.617-18.422-18.974c-9.701-0.332-18.476,8.673-18.589,18.272C934.01,184.241,942.583,193.598,952.238,193.088
		z"/>
	<path d="M1100.641,679.8c-11.764,0-22.825,0-34.356,0c-0.597-7.979,0.174-15.216,2.193-22.522
		c4.087-14.785,11.178-27.487,24.42-35.778c13.259-8.301,27.689-13.803,43.371-15.42c17.672-1.822,35.381-1.649,52.749,2.112
		c15.065,3.263,29.537,8.73,40.754,19.855c8.468,8.399,13.961,18.973,14.3,31.005c0.657,23.315,0.441,46.656,0.504,69.986
		c0.06,22.332,0.011,44.665,0.026,66.998c0.001,1.83-0.031,3.68,0.206,5.488c1.154,8.789,4.228,11.435,13.107,11.434
		c3.78,0,7.559,0,11.795,0c0,9.162,0,17.988,0,27.291c-3.959,0.888-7.453,2.04-11.026,2.403c-9.781,0.995-19.617,1.859-29.202-1.396
		c-9.164-3.112-14.707-9.879-18.016-18.604c-1.328-3.502-1.958-7.269-3.142-11.827c-2.004,1.362-3.589,2.104-4.744,3.272
		c-21.322,21.579-47.414,32.165-77.457,32.735c-16.492,0.313-32.226-3.839-45.553-13.897
		c-19.003-14.342-27.666-33.861-26.708-57.688c0.394-9.793,2.393-19.34,6.548-28.041c4.865-10.189,12.891-17.913,22.461-24.134
		c14.65-9.522,31.009-13.292,47.985-15.39c18.182-2.247,36.379-4.408,54.519-6.96c16.334-2.298,22.114-9.603,21.748-26.561
		c-0.18-8.316-1.597-16.615-7.931-22.485c-4.269-3.957-9.439-7.703-14.881-9.492c-17.593-5.783-35.667-6.567-53.661-1.667
		c-11.917,3.245-20.528,10.647-24.793,22.463C1103.893,668.422,1102.411,674.037,1100.641,679.8z M1205.455,724.264
		c-1.649,0.429-2.831,0.532-3.818,1.024c-13.228,6.6-27.764,7.864-42.003,10.234c-14.391,2.396-29.196,2.516-42.899,8.539
		c-6.861,3.016-12.741,7.004-16.868,13.388c-5.013,7.754-6.693,16.203-5.607,25.293c1.215,10.171,6.272,18.101,14.631,23.721
		c14.622,9.831,30.892,8.486,46.745,4.925c8.894-1.998,17.615-6.088,25.553-10.713c12.051-7.021,21.094-17.519,22.953-31.658
		c1.814-13.795,1.472-27.875,2.03-41.832C1206.201,726.415,1205.802,725.627,1205.455,724.264z"/>
	<path d="M828.365,298.612c0.216-2.308,0.524-4.083,0.527-5.859c0.037-24.831,0.06-49.663,0.026-74.494
		c-0.017-12.568-1.262-24.988-6.2-36.689c-3.142-7.444-8.772-13.173-15.846-16.608c-19.399-9.421-39.338-9.148-59.75-2.747
		c-13.686,4.292-24.038,12.615-32.266,23.756c-3.7,5.01-6.011,11.045-9.476,17.605c-7.072-4.474-14.07-8.901-21.231-13.432
		c2.109-9.127,6.466-16.632,11.706-23.408c4.837-6.254,10.65-11.786,16.291-17.376c6.148-6.093,13.817-9.892,21.932-12.473
		c28.89-9.188,57.924-8.712,86.449,1.026c14.298,4.881,26.899,13.341,35.779,26.052c8.54,12.224,12.214,26.31,12.505,40.96
		c0.546,27.487,0.409,54.99,0.359,82.486c-0.031,17.155,0.773,34.431-0.943,51.435c-2.364,23.422-19.751,43.467-46.423,43.686
		c-19.152,0.157-36.294-6.412-44.667-25.269c-5.813-13.093-5.547-27.026,2.665-39.666c9.745-14.999,24.493-19.471,41.432-18.996
		C823.478,298.666,825.723,298.612,828.365,298.612z M816.637,321.668c-11.87-1.051-19.368,9.722-19.519,17.648
		c-0.192,10.078,8.521,18.714,19.056,18.85c11.775,0.151,17.98-5.807,18.236-17.462
		C834.612,331.467,828.349,321.126,816.637,321.668z"/>
	<path d="M853.705,66.049c19.256,0.513,35.375-6.109,49.921-17.553c14.996-11.797,21.882-27.568,22.913-46.684
		c13.405,0,26.535,0,40.942,0c-1.03,5.787-1.588,10.846-2.859,15.719c-4.448,17.049-14.44,30.623-28.059,41.298
		c-9.37,7.345-19.199,14.404-29.699,19.92c-10.372,5.449-21.625,9.394-33.678,10.259c-18.024,1.293-36.059,1.404-53.737-2.341
		c-13.222-2.801-25.967-7.662-35.08-18.525c-5.807-6.922-8.762-15.056-9.078-24.259c-0.588-17.128,7.868-32.156,22.095-38.812
		c15.298-7.158,30.849-6.768,45.094,1.367c14.684,8.385,21.688,23.692,17.808,41.953c-1.043,4.907-3.826,9.439-5.755,14.165
		C854.179,63.426,854.085,64.403,853.705,66.049z M818.481,60.727c9.272,0.081,19.145-8.546,19.069-19.211
		c-0.08-11.155-10.279-19.667-20.042-19.478c-10.03,0.194-18.014,8.793-17.976,19.552C799.571,52.254,808.214,60.822,818.481,60.727
		z"/>
	<path d="M1186.762,909.954c-13.21,0-25.909,0-39.066,0c0-14.402,0-28.579,0-42.616c5.219-1.996,34.662-1.793,39.066,0.336
		C1186.762,881.338,1186.762,895.22,1186.762,909.954z"/>
</g>
</svg>